# xmcd
# 
# Track frame offsets:
#     150
#     14790
#     29370
#     42520
#     57603
#     75076
#     91820
#     106215
#     120238
#     134523
#     150072
#     165172
#     179358
#     195188
# 
# Disc length: 2798
# 
# Revision: 2
# Processed by: cddbd v1.5.2PL0 Copyright (c) Steve Scherf et al.
# Submitted via: fre:ac v1.0.17
# 
DISCID=9c0aec0e
DTITLE=Olaf - Tausend rote Rosen
DYEAR=2011
DGENRE=Schlager
TTITLE0=Olaf - Tausend rote Rosen
TTITLE1=Olaf - von ganzem herzen
TTITLE2=Olaf - Komm mit runter zum Hafen
TTITLE3=Olaf - Du bist so süß wie Marzipan
TTITLE4=Olaf - Kein Mensch ist eine Insel
TTITLE5=Olaf - Die Fiesta der Liebe
TTITLE6=Olaf - Ein Blick sagt tausend mal mehr
TTITLE7=Olaf - Du sollst immer glücklich sein
TTITLE8=Olaf - Auf der spanischen Treppe
TTITLE9=Olaf - Tiefer als der Ozean ( mit den Karen Martin Singers )
TTITLE10=Olaf - Gib der Liebe eine zweite Chance
TTITLE11=Olaf - Anna Luisa
TTITLE12=Olaf - Vaya con Dios
TTITLE13=Olaf - Jeder Abschied ist ein neuer Anfang
EXTD=YEAR: 2011
EXTT0=
EXTT1=
EXTT2=
EXTT3=
EXTT4=
EXTT5=
EXTT6=
EXTT7=
EXTT8=
EXTT9=
EXTT10=
EXTT11=
EXTT12=
EXTT13=
PLAYORDER=
